<svg xmlns="http://www.w3.org/2000/svg" viewBox="0 0 244.95 84.22"><g id="レイヤー_2" data-name="レイヤー 2"><g id="レイヤー_1-2" data-name="レイヤー 1"><path d="M43.69,39.93v-.12c12-2.27,23.22-8,23.22-19.75C66.91,5.94,53.39.55,34.71.55h-.45l1.52,2.18C45,3,49.56,10.08,49.56,21c0,10.53-3.84,18.07-15.33,18.07h-7.3V12.19L10.17,23.91V80.27H0v2.15H36.75c21.3,0,32.44-7.9,32.44-22C69.19,47.83,57.58,42.32,43.69,39.93ZM36.75,80.27H26.93V41.49h9.22c11.49,0,15.68,7.78,15.68,19.27C51.83,71.53,47.52,80.27,36.75,80.27Z"/><path d="M106.57,79.22c-9.46,0-13.65-9.37-14-24.25H126c0-.49.12-2.44.12-3.3,0-15.61-11.25-23.32-23.34-23.32-13.17,0-26,11.58-26,28.18,0,17.2,11.73,27.69,25.74,27.69,11.49,0,18.91-6.34,24.06-15.62l-1.8-1.22C120.22,75.07,114.11,79.22,106.57,79.22Zm-4.19-48.68c5.63,0,8.14,5.64,8.14,15.4,0,4.64-1.32,6.59-6.1,6.59H92.57C92.8,36.91,96.16,30.54,102.38,30.54Z"/><rect x="135.29" y="52.44" width="22.73" height="2.33"/><rect x="86.24" y="11.85" width="30.06" height="2.29" transform="translate(11.08 60.85) rotate(-35.26)"/><polygon points="225.52 80.1 196.31 0 182.95 9.05 198.01 52.44 170.11 52.44 182.38 17.41 181.19 13.85 157.96 80.1 149.89 80.1 149.89 82.43 171.59 82.43 171.59 80.1 160.42 80.1 169.29 54.77 198.82 54.77 207.61 80.1 199.92 80.1 199.92 82.43 233.23 82.43 233.23 80.1 225.52 80.1"/><path d="M239.53,76.38H241l.35,0a2.66,2.66,0,0,1,.38.1,1.13,1.13,0,0,1,.35.21,1.25,1.25,0,0,1,.25.34,1.13,1.13,0,0,1,.1.51,1.08,1.08,0,0,1-.12.54,1,1,0,0,1-.29.35,1.44,1.44,0,0,1-.39.2l-.41.09L242.62,81h-.5l-1.33-2.17H240V81h-.44Zm.44,2h.93a1.53,1.53,0,0,0,.57-.08,1,1,0,0,0,.33-.21.69.69,0,0,0,.17-.26.86.86,0,0,0,0-.52.81.81,0,0,0-.17-.27.88.88,0,0,0-.33-.2,1.51,1.51,0,0,0-.57-.09H240Z"/><path d="M240.86,82.75A4.09,4.09,0,1,1,245,78.66,4.1,4.1,0,0,1,240.86,82.75Zm0-7.75a3.66,3.66,0,1,0,3.66,3.66A3.66,3.66,0,0,0,240.86,75Z"/></g></g></svg>